<?xml version="1.0" encoding="UTF-8"?> <svg xmlns="http://www.w3.org/2000/svg" xmlns:xlink="http://www.w3.org/1999/xlink" width="175px" height="75px" viewBox="0 0 175 75"><!-- Generator: Sketch 52.6 (67491) - http://www.bohemiancoding.com/sketch --><title>Group 25</title><desc>Created with Sketch.</desc><defs><polygon id="path-1" points="0.332921682 0.0131190932 36.3897484 0.0131190932 36.3897484 37.8504673 0.332921682 37.8504673"></polygon><polygon id="path-3" points="0 0.333174476 14.24681 0.333174476 14.24681 52.5068649 0 52.5068649"></polygon></defs><g id="06-Symbols" stroke="none" stroke-width="1" fill="none" fill-rule="evenodd"><g id="Atoms-/-Logo-/-Customers-/-Looker-/-Color" transform="translate(-3.000000, -3.000000)"><g id="Group-25" transform="translate(3.000000, 3.000000)"><path d="M135.888653,52.1622196 C139.372585,52.1622196 142.856168,52.131729 146.339401,52.1807944 C147.379271,52.195514 147.752675,51.933014 147.299281,50.9082477 C146.151826,48.3147897 144.926128,45.8457477 142.3151,44.2956308 C138.831517,42.2268224 135.381467,41.3899065 131.57024,43.420514 C128.477176,45.0684112 126.196238,47.3566121 124.967745,50.6899065 C124.563603,51.7861682 124.584561,52.2284579 125.961158,52.1909579 C129.268343,52.1012383 132.579022,52.1618692 135.888653,52.1622196 M153.37992,62.7354673 C149.911357,73.1713318 140.697834,75.7689953 133.435858,74.4505374 C129.485958,73.7331308 125.865449,72.0428271 123.158713,68.8907243 C118.165449,63.0775234 116.762305,56.4386215 119.398483,49.2459813 C122.025579,42.0782243 128.851976,36.9291589 136.273234,37.0024065 C144.559361,37.0840654 151.861856,43.3048598 153.653074,51.9550935 C153.936008,53.3201636 153.958363,54.7378037 154.208812,56.1116355 C154.437954,57.3684112 153.902824,57.5376869 152.80008,57.5324299 C143.842246,57.4910748 134.883713,57.536285 125.925878,57.4805607 C124.56011,57.4717991 124.110559,57.7255374 124.391397,59.1985514 C125.476327,64.886986 130.725978,69.6677103 137.574032,69.4073131 C141.723733,69.2499533 144.452475,67.1878037 146.493792,63.8864019 C147.019142,63.0368692 147.516547,62.6471495 148.532665,62.7102336 C150.082864,62.8062617 151.643194,62.7354673 153.37992,62.7354673" id="Fill-1" fill="#3C4446"></path><path d="M96.0379391,54.0394626 C101.308548,48.8420327 106.312989,43.9410981 111.265734,38.9875935 C112.030005,38.2232243 112.775414,37.893785 113.854057,37.9333879 C116.114736,38.0160981 118.380304,37.958271 121.113588,37.958271 C119.994426,39.0208879 119.151562,39.8343224 118.294726,40.6323364 C115.06264,43.6432009 112.127809,46.9740421 108.665883,49.7357243 C107.398618,50.746472 107.236542,51.5567523 108.248468,53.0245093 C112.956003,59.8498598 117.504955,66.785257 122.260694,73.9067523 C119.957051,73.9067523 117.829107,73.8895794 115.701861,73.9151636 C114.86773,73.9249766 114.657799,73.2496262 114.335394,72.7414486 C111.638089,68.4902804 108.679855,64.4146963 106.064286,60.1011449 C105.17252,58.6309346 104.157799,57.0818692 102.846871,55.7511449 C100.733598,57.5567523 98.9381886,59.708972 96.7330489,61.4143458 C96.101512,61.9028972 96.0187275,62.676028 96.0264122,63.469486 C96.0543563,66.5055841 95.9851946,69.5434346 96.0655339,72.5777804 C96.0952246,73.6880607 95.7508134,74.0203037 94.6920808,73.9085047 C93.2117415,73.7521963 91.2291068,74.5382944 90.3743663,73.5639953 C89.6425798,72.7298832 90.1284581,70.7939019 90.1277595,69.3450701 C90.1204242,54.1053505 90.1413822,38.8659813 90.0914321,23.6266121 C90.0868912,22.2724065 90.3778593,21.8595561 91.7872904,21.8903972 C96.0365419,21.983271 96.0379391,21.9156308 96.0379391,26.1170327 L96.0379391,54.0394626 Z" id="Fill-3" fill="#3C4446"></path><g id="Group-7" transform="translate(13.273453, 36.978855)"><mask id="mask-2" fill="white"><use xlink:href="#path-1"></use></mask><g id="Clip-6"></g><path d="M30.4850699,19.0166005 C30.4459481,18.3969743 30.4375649,17.8698715 30.3732934,17.3490771 C30.3086727,16.8293341 30.2223952,16.3071379 30.0868663,15.8014136 C28.7483433,10.8048014 25.8540319,7.21216121 20.6836727,6.01882009 C15.6324251,4.85316589 11.8264371,6.96823598 8.85353293,11.0224416 C4.9944511,16.2857593 5.40592814,26.3438201 12.7531337,30.5238435 C16.6157086,32.7212734 20.7098703,32.7205724 24.2395609,30.6104089 C28.3864671,28.1319042 30.4022854,23.9014136 30.4850699,19.0166005 M36.3896607,17.8071379 C36.429481,32.6673014 22.9122156,41.939965 10.7649102,36.0640304 C6.85378244,34.1718575 4.06006986,31.0779322 2.24335329,27.0265304 C0.360618762,22.8282827 -0.289431138,18.587979 1.01695609,14.1468575 C2.7711477,8.18435748 6.11605788,3.52349299 12.1034331,1.23949766 C16.6534331,-0.496016355 21.2156587,-0.406647196 25.6842715,1.61695093 C27.5205489,2.44860981 29.0036826,3.74288551 30.4951996,5.10865654 C34.6354691,8.89966121 36.244002,13.6712734 36.3896607,17.8071379" id="Fill-5" fill="#3C4446" mask="url(#mask-2)"></path></g><path d="M87.3753343,55.8636799 C87.3533283,66.7723248 79.2219411,74.9283995 68.7020309,74.7973248 C60.3167016,74.693236 52.7710928,67.9761799 51.4112625,59.5064369 C50.3287774,52.7658995 51.8332186,46.9008294 56.8250848,42.0615771 C57.7521307,41.162979 58.1087675,41.3238435 58.8705938,42.2876285 C60.596492,44.4724416 61.2776297,46.0845911 59.2233882,48.8946379 C56.0157535,53.2838902 56.3332685,58.3779322 59.0787774,63.1078388 C61.8117116,67.8167173 66.6387076,69.9391472 71.7367615,68.874778 C76.543498,67.8717407 80.7951946,63.105736 81.3907535,58.0541005 C82.1889072,51.2841238 78.504476,45.0282827 72.6292265,43.1890304 C69.8348154,42.314264 67.0931487,42.5525818 64.483518,43.8069042 C63.647989,44.2081893 63.268997,44.0911332 62.8246856,43.3558528 C62.2829192,42.459007 61.6995858,41.5744276 61.0289271,40.7725584 C60.176981,39.7541005 60.4937974,39.282021 61.5832685,38.7461565 C70.3552745,34.4350584 81.0735878,38.2548014 85.3916517,47.2737266 C86.7221407,50.0532827 87.4567216,52.9674182 87.3753343,55.8636799" id="Fill-8" fill="#7770DF"></path><g id="Group-12" transform="translate(0.000000, 21.558294)"><mask id="mask-4" fill="white"><use xlink:href="#path-3"></use></mask><g id="Clip-11"></g><path d="M0.0233682635,21.0410047 C0.0233682635,14.678271 0.0478193613,8.31553738 0.000314371257,1.95350467 C-0.00806886228,0.83411215 0.126412176,0.324182243 1.45620259,0.333294393 C5.86718064,0.363434579 5.86752994,0.302803738 5.86752994,4.75023364 C5.86752994,15.5491822 5.86613273,26.3481308 5.87067365,37.1463785 C5.87102295,38.0796729 5.88429641,39.0150701 5.94297904,39.9459112 C6.21229042,44.2195093 8.36713074,46.5417056 12.5947255,46.7449766 C14.069476,46.815771 14.3642864,47.3221963 14.2102445,48.5719626 C14.1536577,49.0317757 14.2011627,49.5049065 14.2011627,49.971729 C14.2011627,52.5452103 14.1994162,52.5851636 11.6652345,52.4754673 C4.81857784,52.1796729 0.249715569,47.7557243 0.0796057884,40.1274533 C-0.0625598802,33.7678738 0.0502644711,27.4030374 0.0502644711,21.0410047 L0.0233682635,21.0410047 Z" id="Fill-10" fill="#3C4446" mask="url(#mask-4)"></path></g><path d="M163.226936,41.6125935 C166.012964,38.5498598 169.292206,36.9689019 173.314062,36.9790654 C174.362315,36.9818692 174.761218,37.2738084 174.678084,38.3753271 C174.572944,39.7670327 175.08991,41.4180841 174.502735,42.5020794 C173.90508,43.6057009 172.082076,42.9296495 170.811667,43.2271963 C166.43492,44.2533645 163.175938,47.5617757 163.210868,52.2566355 C163.260469,58.9628271 163.174541,65.6704206 163.222745,72.3762617 C163.231477,73.5506776 163.030629,74.0795327 161.741357,73.9211215 C160.311317,73.7455374 158.428583,74.5141121 157.537515,73.6365421 C156.648543,72.7610748 157.283922,70.8755607 157.280778,69.4365421 C157.255978,59.4639953 157.296148,49.4907477 157.233273,39.5182009 C157.22489,38.1972897 157.549042,37.6792991 158.854032,37.9281308 C158.910269,37.9393458 158.97,37.9295327 159.027984,37.9298832 C160.248443,37.9379439 161.700838,37.5349065 162.627186,38.0623598 C163.694301,38.6697196 162.648493,40.316215 163.226936,41.6125935" id="Fill-13" fill="#3C4446"></path><path d="M39.4523004,27.3071145 C39.5714122,24.0305958 41.6326397,20.5581659 45.6209631,18.3831659 C49.314476,16.3690304 53.0614321,16.4783762 56.7441168,18.612722 C57.9551447,19.3147079 58.2981587,19.8043107 57.1007535,20.9822313 C55.8411727,22.2214836 54.9176198,22.8376051 53.0083383,21.9821145 C50.1699152,20.7102687 46.984985,21.9060631 45.1057435,24.3821145 C43.248508,26.8283762 43.1440669,30.1329322 44.8416717,32.7274416 C46.4578892,35.198236 49.5331387,36.4224182 52.4501547,35.7565304 C53.7652745,35.4565304 55.896013,37.2677453 55.9057934,38.6559463 C55.9127794,39.5636565 55.184486,39.6134229 54.6242066,39.8258061 C47.3297455,42.5881893 39.4135279,36.735736 39.4523004,27.3071145" id="Fill-15" fill="#7770DF"></path><path d="M72.7350299,13.6269042 C72.7367764,18.6978154 67.6439621,22.2880023 63.2018962,20.3106659 C62.660479,20.0695444 61.475998,19.9339136 61.9017964,19.1211799 C62.3241018,18.3147547 62.9493513,17.0330958 64.4317864,17.7498014 C65.1248004,18.0848481 65.8782435,18.1465304 66.6488024,17.9712967 C69.255988,17.3772547 70.8096806,14.8637033 70.0737026,12.4076285 C69.3199102,9.89232477 66.4944112,8.35692757 64.0786427,9.49033879 C62.4938623,10.2340304 62.1033433,8.92783879 61.7103792,8.31522196 C61.2238024,7.55681075 62.3796407,7.27783879 62.9196607,7.07316589 C67.8629741,5.20061916 72.7601796,8.47153037 72.7350299,13.6269042" id="Fill-17" fill="#7770DF"></path><path d="M62.4289271,28.9425701 C62.3419511,31.7025 61.4379591,34.2178037 59.6432485,36.4145327 C59.058518,37.1308879 58.5726397,37.2178037 58.0451946,36.3777336 C57.7985878,35.9852103 57.5268313,35.6000467 57.2145559,35.2593925 C56.3580689,34.3250467 56.1156537,33.5354439 56.9560729,32.286729 C58.3407036,30.229486 58.4846158,27.8459579 57.2327196,25.6632477 C56.513508,24.4096262 56.7660529,23.699229 57.7702944,22.932757 C58.1821208,22.6187383 58.5600649,22.236028 58.8761826,21.8245794 C59.4713922,21.0496963 59.835015,21.3349766 60.293997,21.9840421 C61.7589671,24.0546028 62.3314721,26.3862617 62.4289271,28.9425701" id="Fill-19" fill="#7770DF"></path><path d="M58.5908733,4.51405374 C58.6174202,2.83110981 57.5471607,1.59676402 56.0322405,1.53122664 C54.5735579,1.46814252 53.2759032,2.62223131 53.2004541,4.05003505 C53.1176697,5.61522196 54.3479092,6.84150701 56.0727595,6.90038551 C56.3605838,6.90984813 56.6756537,6.78823598 56.9337874,6.86954439 C57.4315419,7.02620327 57.9907735,7.35073598 58.0264022,7.85400701 C58.0669212,8.42702103 57.3780988,8.42141355 56.9676697,8.52655374 C55.1928693,8.98005841 53.2214122,8.18554907 52.2451148,6.67363318 C51.2569411,5.14314252 51.3882784,3.00844626 52.5563423,1.61183411 C53.784486,0.143726636 55.6811926,-0.375315421 57.4311926,0.278656542 C59.139975,0.916857477 60.3789471,2.71265187 60.2091866,4.51265187 C60.1536477,5.10353972 60.3248054,6.16300234 59.3781986,6.09536215 C58.7637774,6.05155374 58.1842864,5.35587617 58.5908733,4.51405374" id="Fill-21" fill="#7770DF"></path><path d="M58.6321607,13.5616822 C58.7865519,12.8267523 58.826023,12.0392523 59.1299152,11.3733645 C59.3925898,10.7971963 59.3237774,9.48329439 60.3077595,9.91331776 C61.0402445,10.2332944 62.2809631,10.8301402 61.6378992,12.3045561 C61.2414421,13.2143692 61.3172405,14.2450935 61.7196357,15.1976636 C61.8988273,15.621729 62.2037675,16.0485981 61.7102046,16.4498832 C61.1866018,16.8760514 60.8676896,17.763785 60.1439371,17.673715 C59.466991,17.5896028 59.3918912,16.7158879 59.1718313,16.1390187 C58.8609531,15.3241822 58.6457834,14.4742991 58.6321607,13.5616822" id="Fill-23" fill="#7770DF"></path></g></g></g></svg> 